
<svg width="523" height="223" viewBox="0 0 523 223" fill="none" xmlns="http://www.w3.org/2000/svg">
<g opacity="0.54">
<path d="M492 -242L492.007 3.6478M395.934 -242.004V-52.0043M328 -281.35V-91.3505M260.066 -242.004V-52.0043M164 -242L163.993 3.6478M492.007 3.6478L492 -52.0002L395.934 -52.0043M492.007 3.6478L559.931 42.9998M395.934 -52.0043L328 -91.3505M328 -91.3505L260.066 -52.0043M260.066 -52.0043L164 -52.0002L163.993 3.6478M163.993 3.6478L96.0688 42.9998" stroke="#637794" stroke-width="2" stroke-linejoin="round"/>
<path d="M492.007 -186.352L492 -242L395.934 -242.004L328 -281.35L260.066 -242.004L164 -242L163.993 -186.352L96.0688 -147V42.9998L163.993 82.3517L164 138L260.066 138.004L328 177.35L395.934 138.004L492 138L492.007 82.3517L559.931 42.9998V-147L492.007 -186.352Z" fill="white" fill-opacity="0.6"/>
<path d="M96.0691 -147L163.993 -186.352L164 -242L260.066 -242.004L328 -281.35L395.934 -242.004L492 -242L492.007 -186.352L559.931 -147M96.0691 -147L163.993 -107.648L164 -52.0002M96.0691 -147V42.9998L163.993 82.3517L164 138M164 -52.0002L260.066 -51.9961M164 -52.0002V138M260.066 -51.9961L328 -12.6499M260.066 -51.9961V138.004M328 -12.6499L395.934 -51.9961M328 -12.6499V177.35M395.934 -51.9961L492 -52.0002M395.934 -51.9961V138.004M492 -52.0002L492.007 -107.648L559.931 -147M492 -52.0002V138M559.931 -147V42.9998L492.007 82.3517L492 138M164 138L260.066 138.004M260.066 138.004L328 177.35M328 177.35L395.934 138.004M395.934 138.004L492 138" stroke="#14181E" stroke-width="2" stroke-linejoin="round"/>
</g>
</svg>
