
<svg width="447" height="223" viewBox="0 0 447 223" fill="none" xmlns="http://www.w3.org/2000/svg">
<g opacity="0.54">
<path d="M404.25 -0.999895V-235M404.25 -0.999895C441.46 20.5392 460.066 48.7696 460.066 77M404.25 -0.999895L134.75 155" stroke="#637794" stroke-width="2" stroke-linejoin="round"/>
<path d="M134.75 155C209.17 198.078 329.83 198.078 404.25 155C441.46 133.461 460.065 105.23 460.065 76.9999L460.065 -157C460.065 -185.23 441.46 -213.461 404.25 -235L134.75 -79L134.75 155Z" fill="white" fill-opacity="0.6"/>
<path d="M404.25 155L404.25 -79M269.5 -46.6913V187.297" stroke="#14181E" stroke-linejoin="round"/>
<path d="M460.065 -157L460.065 77C460.065 105.23 441.46 133.461 404.25 155C329.83 198.078 209.17 198.078 134.75 155L134.75 -79M460.065 -157C460.065 -128.77 441.46 -100.539 404.25 -79C367.04 -57.4609 318.27 -46.6914 269.5 -46.6914C220.73 -46.6914 171.96 -57.4609 134.75 -79M460.065 -157C460.065 -185.23 441.46 -213.461 404.25 -235L134.75 -79" stroke="#14181E" stroke-width="2" stroke-linejoin="round"/>
</g>
</svg>