
<svg width="313" height="210" viewBox="0 0 313 210" fill="none" xmlns="http://www.w3.org/2000/svg">
<g opacity="0.54">
<path d="M89.7998 -166.538L89.7998 27.9999M359.2 -166.538L359.2 27.9999M134.7 -192.538L134.7 1.99993M314.3 -192.538L314.3 1.99993M199.972 -223.251L199.972 -28.7125M249.027 -223.251L249.027 -28.7125" stroke="#637794" stroke-linecap="round" stroke-linejoin="round"/>
<path d="M416.123 80C416.123 75.2062 414.828 70.4125 412.238 65.797C406.349 55.3025 390.633 46.2017 359.2 28L314.3 1.99997C282.867 -16.2017 267.151 -25.3026 249.027 -28.7124C233.086 -31.7118 215.914 -31.7118 199.972 -28.7125C181.849 -25.3026 166.133 -16.2017 134.7 1.99997L89.7999 28C58.367 46.2017 42.6505 55.3025 36.762 65.797C34.1721 70.4125 32.8772 75.2062 32.8772 80" stroke="#637794" stroke-width="2" stroke-linecap="round" stroke-linejoin="round"/>
<path d="M314.3 158L359.2 132L359.2 132C390.632 113.798 406.349 104.697 412.238 94.203C414.828 89.5874 416.122 84.7937 416.122 80V-115C416.122 -119.794 414.828 -124.587 412.238 -129.203C406.349 -139.697 390.633 -148.798 359.2 -167L314.3 -193C282.867 -211.202 267.15 -220.303 249.027 -223.712C233.086 -226.712 215.914 -226.712 199.972 -223.712C181.849 -220.303 166.133 -211.202 134.7 -193L89.7997 -167C58.3667 -148.798 42.6503 -139.697 36.7617 -129.203C34.1719 -124.587 32.877 -119.794 32.877 -115V80C32.877 84.7937 34.1719 89.5874 36.7617 94.203C42.6503 104.697 58.3668 113.798 89.7997 132L134.7 158C166.132 176.202 181.849 185.303 199.972 188.712C215.914 191.712 233.086 191.712 249.027 188.712C267.15 185.303 282.867 176.202 314.3 158Z" fill="white" fill-opacity="0.6"/>
<path d="M199.972 -5.82564V189.174M249.028 -5.82564V189.174M134.7 -36.5381V158.462M314.3 -36.538V158.462M91.1013 -63V132M360.501 132V-63" stroke="#14181E" stroke-linecap="round" stroke-linejoin="round"/>
<path d="M32.8772 -115V80C32.8772 84.7937 34.1721 89.5874 36.762 94.203C42.6505 104.697 58.3671 113.798 89.7999 132L134.7 158C166.133 176.202 181.849 185.303 199.972 188.712C215.914 191.712 233.086 191.712 249.027 188.712C267.15 185.303 282.867 176.202 314.3 158L359.2 132C390.632 113.799 406.349 104.697 412.238 94.203C414.828 89.5874 416.123 84.7937 416.123 80V-115M32.8772 -115C32.8772 -119.794 34.1721 -124.587 36.762 -129.203C42.6505 -139.697 58.367 -148.798 89.7999 -167L134.7 -193C166.133 -211.202 181.849 -220.303 199.972 -223.712C215.914 -226.712 233.086 -226.712 249.027 -223.712C267.151 -220.303 282.867 -211.202 314.3 -193L359.2 -167C390.633 -148.798 406.349 -139.697 412.238 -129.203C414.828 -124.587 416.123 -119.794 416.123 -115M32.8772 -115C32.8772 -110.206 34.1721 -105.413 36.762 -100.797C42.6505 -90.3026 58.367 -81.2017 89.7999 -63L134.7 -37C166.133 -18.7983 181.849 -9.69746 199.972 -6.28762C215.914 -3.28824 233.086 -3.28824 249.027 -6.28762C267.15 -9.69746 282.867 -18.7983 314.3 -37L359.2 -63C390.633 -81.2017 406.349 -90.3026 412.238 -100.797C414.828 -105.413 416.123 -110.206 416.123 -115" stroke="#14181E" stroke-width="2" stroke-linecap="round" stroke-linejoin="round"/>
</g>
</svg>
