
<svg width="523" height="223" viewBox="0 0 523 223" fill="none" xmlns="http://www.w3.org/2000/svg">
<g opacity="0.54">
<path d="M615.75 -42.4999L600.093 37.6981M615.75 -42.4999L600.093 -41.4811M615.75 -42.4999V-427.263M600.093 37.6981L698.942 94.7635M600.093 37.6981V-41.4811M136.521 131.35L210.898 63.0157M210.898 63.0157L164.724 -13.1602M210.898 63.0157V-16.1628M164.724 -13.1602L210.898 -16.1628M164.724 -13.1602V-368.561M210.898 -16.1628L303.633 -22.1932M210.898 -16.1628V-410.984M303.633 -22.1932L378 -90.5305M303.633 -22.1932V-496.193M378 -90.5305L476.841 -33.4606M378 -90.5305V-564.531M476.841 -33.4606L600.093 -41.4811M476.841 -33.4606V-507.461M600.093 -41.4811V-436.302" stroke="#637794" stroke-width="2" stroke-linejoin="round"/>
<path d="M580.577 137.699L698.942 94.7635V-379.236L615.75 -427.263V-516.5L476.841 -507.461L378 -564.531L303.633 -496.193L164.723 -487.16V-368.561L136.521 -342.65V131.35L268.467 158.002L314.631 234.18L432.989 191.239L564.931 217.898L580.577 137.699Z" fill="white" fill-opacity="0.6"/>
<path d="M580.577 137.699L698.942 94.7635V-379.236M580.577 137.699L564.931 217.898M580.577 137.699V-336.301M564.931 217.898L432.989 191.239M564.931 217.898V-256.102M432.989 191.239L314.63 234.18M432.989 191.239V-282.761M314.63 234.18L268.466 158.002M314.63 234.18V-239.82M268.466 158.002L136.521 131.35V-342.65M268.466 158.002V-315.998M615.749 -516.5L600.093 -436.302L698.942 -379.236M615.749 -516.5L476.841 -507.461L378 -564.531L303.633 -496.193L164.723 -487.16M615.749 -516.5V-427.263M698.942 -379.236L580.577 -336.301M580.577 -336.301L564.931 -256.102M564.931 -256.102L432.989 -282.761M432.989 -282.761L314.63 -239.82M314.63 -239.82L268.466 -315.998M268.466 -315.998L136.521 -342.65M136.521 -342.65L210.897 -410.984L164.723 -487.16M164.723 -487.16V-368.561" stroke="#14181E" stroke-width="2" stroke-linejoin="round"/>
</g>
</svg>
