
<svg width="345" height="223" viewBox="0 0 345 223" fill="none" xmlns="http://www.w3.org/2000/svg">
<g opacity="0.54">
<path d="M108 48.7501L108 -202.25M324 48.7501V-202.25M216 22.7582V-228.232" stroke="#637794" stroke-linejoin="round"/>
<path d="M63.2649 111.5C63.2649 88.789 78.1766 66.078 108 48.7501C137.823 31.4222 176.912 22.7582 216 22.7582C255.088 22.7582 294.177 31.4221 324 48.7501C353.823 66.078 368.735 88.789 368.735 111.5" stroke="#637794" stroke-width="2" stroke-linejoin="round"/>
<path d="M108 -202.25C167.647 -236.906 264.353 -236.906 324 -202.25C353.823 -184.922 368.735 -162.211 368.735 -139.5L368.735 111.5C368.735 134.211 353.823 156.922 324 174.25C264.353 208.906 167.647 208.906 108 174.25C78.1766 156.922 63.2649 134.211 63.2649 111.5L63.265 -139.5C63.265 -162.211 78.1767 -184.922 108 -202.25Z" fill="white" fill-opacity="0.6"/>
<path d="M324 174.25L324 -76.75M108 174.25L108 -76.75M216 -50.7581V200.232" stroke="#14181E" stroke-linejoin="round"/>
<path d="M368.735 -139.5L368.735 111.5C368.735 134.211 353.823 156.922 324 174.25C264.353 208.906 167.647 208.906 108 174.25C78.1766 156.922 63.2649 134.211 63.2649 111.5L63.2652 -139.5M368.735 -139.5C368.735 -116.789 353.823 -94.078 324 -76.75C294.177 -59.4221 255.088 -50.7581 216 -50.7581C176.912 -50.7581 137.823 -59.4221 108 -76.75C78.1767 -94.0779 63.2652 -116.789 63.2652 -139.5M368.735 -139.5C368.735 -162.211 353.823 -184.922 324 -202.25C264.353 -236.906 167.647 -236.906 108 -202.25C78.1767 -184.922 63.2653 -162.211 63.2652 -139.5" stroke="#14181E" stroke-width="2" stroke-linejoin="round"/>
</g>
</svg>
