
<svg width="380" height="196" viewBox="0 0 380 196" fill="none" xmlns="http://www.w3.org/2000/svg">
<g opacity="0.54">
<path d="M67.3652 62.5001C67.3652 38.3413 83.2434 14.1826 115 -4.24992C178.513 -41.1149 281.487 -41.1149 345 -4.24993C376.756 14.1826 392.634 38.3413 392.634 62.5001" stroke="#637794" stroke-width="2" stroke-linejoin="round"/>
<path d="M153.901 -87.6687C157.855 -93.7603 164.054 -99.4727 172.5 -104.375C204.257 -122.808 255.744 -122.808 287.5 -104.375C295.943 -99.4746 302.141 -93.7646 306.095 -87.6756L382.174 29.125C404.03 62.7583 391.639 102.18 345 129.25C281.488 166.115 178.513 166.115 115 129.25C68.362 102.18 55.9708 62.7583 77.8268 29.125L153.901 -87.6687Z" fill="white" fill-opacity="0.6"/>
<path d="M287.5 -37.6249L345 129.25M230 -23.8056V156.889M172.498 -37.6419L114.989 129.256" stroke="#14181E" stroke-linejoin="round"/>
<path d="M306.095 -87.6756L382.174 29.125C404.03 62.7583 391.639 102.18 345 129.25C281.487 166.115 178.513 166.115 115 129.25C68.362 102.18 55.9708 62.7583 77.8268 29.125L153.901 -87.6687M287.5 -37.625C255.744 -19.1925 204.257 -19.1924 172.5 -37.625C140.744 -56.0575 140.744 -85.9425 172.5 -104.375C204.257 -122.808 255.744 -122.808 287.5 -104.375C319.257 -85.9425 319.257 -56.0575 287.5 -37.625Z" stroke="#14181E" stroke-width="2" stroke-linejoin="round"/>
</g>
</svg>
