<svg width="269" height="253" viewBox="0 0 269 253" fill="none" xmlns="http://www.w3.org/2000/svg">
<g opacity="0.92">
<path d="M201.952 152.154L202.269 152.541L201.952 152.154ZM134.499 175V175.5V175ZM67.0467 152.154L67.3632 151.767L67.0467 152.154ZM67.0518 57.8852L67.3026 58.3177L67.0518 57.8852ZM201.948 57.8852L201.697 58.3177L201.948 57.8852ZM134.5 175L134.751 175.433L134.5 175ZM134.5 175L134.249 175.433L134.5 175ZM201.636 151.767C183.11 166.915 158.814 174.5 134.499 174.5V175.5C159.011 175.5 183.541 167.855 202.269 152.541L201.636 151.767ZM134.499 174.5C110.185 174.5 85.8884 166.915 67.3632 151.767L66.7302 152.541C85.458 167.855 109.987 175.5 134.499 175.5V174.5ZM67.3632 151.767C48.8424 136.623 39.6068 116.799 39.6068 97H38.6068C38.6068 117.125 47.9978 137.224 66.7302 152.541L67.3632 151.767ZM229.392 97C229.392 116.799 220.157 136.623 201.636 151.767L202.269 152.541C221.001 137.224 230.392 117.125 230.392 97H229.392ZM67.3026 58.3177C85.8338 47.571 110.153 42.1833 134.5 42.1833V41.1833C110.024 41.1833 85.5203 46.5969 66.801 57.4527L67.3026 58.3177ZM134.5 42.1833C158.846 42.1833 183.166 47.571 201.697 58.3177L202.199 57.4527C183.479 46.5969 158.976 41.1833 134.5 41.1833V42.1833ZM39.614 97C39.614 83.0837 48.769 69.0659 67.3026 58.3177L66.801 57.4527C48.0842 68.307 38.614 82.6027 38.614 97H39.614ZM201.697 58.3177C220.231 69.0659 229.386 83.0837 229.386 97H230.386C230.386 82.6028 220.915 68.307 202.199 57.4527L201.697 58.3177ZM201.25 58C201.25 79.4312 193.757 103.211 181.619 124.328C169.481 145.445 152.726 163.852 134.249 174.567L134.751 175.433C153.415 164.608 170.284 146.055 182.486 124.826C194.688 103.598 202.25 79.647 202.25 58H201.25ZM134.249 174.567C115.837 185.245 99.2791 186.228 87.3293 179.375L86.8319 180.242C99.2003 187.335 116.157 186.215 134.751 175.433L134.249 174.567ZM181.66 14.6196C193.704 21.5203 201.25 36.4809 201.25 58H202.25C202.25 36.2717 194.623 20.8944 182.158 13.7519L181.66 14.6196ZM134.751 174.567C116.274 163.852 99.5183 145.445 87.3805 124.328C75.2427 103.211 67.75 79.4312 67.75 58H66.75C66.75 79.647 74.3116 103.598 86.5135 124.826C98.7154 146.055 115.585 164.609 134.249 175.433L134.751 174.567ZM67.75 58C67.75 36.479 75.2973 21.5176 87.3425 14.6177L86.8454 13.75C74.3783 20.8916 66.75 36.2698 66.75 58H67.75ZM181.659 179.381C169.71 186.227 153.157 185.242 134.751 174.567L134.249 175.433C152.837 186.212 169.789 187.335 182.156 180.249L181.659 179.381Z" fill="#637794"/>
<ellipse cx="134.5" cy="97" rx="95.3927" ry="95.4281" fill="white" fill-opacity="0.6"/>
<path d="M67.0469 41.8456L67.3634 42.2327L67.0469 41.8456ZM134.5 19V18.5V19ZM201.953 41.8456L202.269 41.4585L201.953 41.8456ZM201.948 136.115L202.198 136.547L201.948 136.115ZM134.5 152.317V151.817V152.317ZM67.0516 136.115L67.3024 135.682L67.0516 136.115ZM134.5 19L134.751 19.4325L134.5 19ZM134.5 19L134.75 18.5674L134.5 19ZM67.3634 42.2327C85.8887 27.0851 110.185 19.5 134.5 19.5V18.5C109.988 18.5 85.4582 26.1453 66.7304 41.4585L67.3634 42.2327ZM134.5 19.5C158.814 19.4999 183.111 27.085 201.636 42.2327L202.269 41.4585C183.541 26.1453 159.012 18.4999 134.5 18.5V19.5ZM39.6071 96.9999C39.6071 77.2008 48.8427 57.3766 67.3634 42.2327L66.7304 41.4585C47.998 56.7755 38.6071 76.8752 38.6071 96.9999L39.6071 96.9999ZM201.636 42.2327C220.157 57.3766 229.392 77.2008 229.392 96.9999H230.392C230.392 76.8752 221.001 56.7755 202.269 41.4585L201.636 42.2327ZM201.697 135.682C183.166 146.429 158.846 151.817 134.5 151.817V152.817C158.976 152.817 183.479 147.403 202.198 136.547L201.697 135.682ZM134.5 151.817C110.153 151.817 85.8336 146.429 67.3024 135.682L66.8007 136.547C85.5201 147.403 110.023 152.817 134.5 152.817V151.817ZM67.3024 135.682C48.7687 124.934 39.6137 110.916 39.6137 96.9999H38.6137C38.6137 111.397 48.0839 125.693 66.8007 136.547L67.3024 135.682ZM229.385 96.9999C229.385 110.916 220.23 124.934 201.697 135.682L202.198 136.547C220.915 125.693 230.385 111.397 230.385 96.9999H229.385ZM67.7497 136C67.7497 114.569 75.2425 90.789 87.3803 69.672C99.5181 48.5549 116.274 30.1476 134.751 19.4325L134.249 18.5675C115.584 29.3915 98.7152 47.9451 86.5133 69.1736C74.3113 90.4023 66.7497 114.353 66.7497 136H67.7497ZM87.3293 179.375C75.2916 172.472 67.7497 157.513 67.7497 136H66.7497C66.7497 157.722 74.3726 173.097 86.8319 180.242L87.3293 179.375ZM134.751 19.4325C153.157 8.75796 169.711 7.7728 181.66 14.6195L182.158 13.7519C169.79 6.66527 152.837 7.78749 134.249 18.5675L134.751 19.4325ZM134.249 19.4325C152.725 30.1476 169.481 48.5549 181.619 69.672C193.757 90.789 201.25 114.569 201.25 136H202.25C202.25 114.353 194.688 90.4023 182.486 69.1736C170.284 47.9451 153.415 29.3915 134.75 18.5674L134.249 19.4325ZM87.3422 14.6177C99.291 7.77298 115.844 8.75894 134.249 19.4325L134.75 18.5674C116.164 7.78847 99.2125 6.66547 86.8452 13.7499L87.3422 14.6177ZM201.25 136C201.25 157.52 193.703 172.481 181.659 179.381L182.156 180.249C194.622 173.107 202.25 157.729 202.25 136H201.25ZM134 1.44995V192.55H135V1.44995H134Z" fill="#14181E"/>
<path d="M40.1071 97C40.1071 44.8485 82.3684 2.5719 134.5 2.5719V0.571899C81.2632 0.571899 38.1071 43.7446 38.1071 97H40.1071ZM134.5 2.5719C186.631 2.5719 228.892 44.8485 228.892 97H230.892C230.892 43.7446 187.736 0.571899 134.5 0.571899V2.5719ZM228.892 97C228.892 149.152 186.631 191.428 134.5 191.428V193.428C187.736 193.428 230.892 150.255 230.892 97H228.892ZM134.5 191.428C82.3684 191.428 40.1071 149.152 40.1071 97H38.1071C38.1071 150.255 81.2632 193.428 134.5 193.428V191.428Z" fill="#14181E"/>
</g>
</svg>
