<svg width="476" height="604" viewBox="0 0 476 604" fill="none" xmlns="http://www.w3.org/2000/svg">
<path d="M1.05645 5.03324C0.537081 3.05044 2.11483 1.14227 4.1599 1.27985L72.4768 5.87574C73.1394 5.92032 73.7686 6.18355 74.2656 6.62416L213.59 130.146C214.065 130.567 214.661 130.826 215.292 130.887L283.957 137.517C284.465 137.566 284.931 137.729 285.35 138.02C351.858 184.097 485.47 307.486 474.346 434.88C463.229 562.201 356.377 603.611 303.878 602.993C251.697 602.379 190.363 579.783 189.622 579.509C189.599 579.501 189.603 579.502 189.58 579.493C133.77 557.238 107.468 512.134 101.293 492.36L42.0836 279.544C41.4814 277.38 43.3842 275.346 45.5838 275.803L68.7605 280.616C70.9406 281.069 72.8369 279.073 72.2727 276.919L1.05645 5.03324Z" fill="white"/>
<path d="M150.849 317.604C153.101 319.471 156.421 317.339 155.66 314.514L75.5237 16.991C74.7462 14.1043 78.2079 11.9808 80.4288 13.9822L290.161 202.987C292.262 204.881 295.577 203.08 295.132 200.287L286.516 146.158C286.092 143.494 289.145 141.696 291.284 143.34C396.444 224.15 443.747 307.53 458.905 350.206C513.875 511.52 388.495 593.104 316.231 599.903C232.232 603.611 182.203 533.152 174.792 504.103L117.431 296.991C116.648 294.161 119.977 292.006 122.237 293.881L150.849 317.604Z" fill="#FF5F1F"/>
<path d="M1.05645 5.03324C0.537081 3.05044 2.11483 1.14227 4.1599 1.27985L72.4768 5.87574C73.1394 5.92032 73.7686 6.18355 74.2656 6.62416L213.59 130.146C214.065 130.567 214.661 130.826 215.292 130.887L283.957 137.517C284.465 137.566 284.931 137.729 285.35 138.02C351.858 184.097 485.47 307.486 474.346 434.88C463.229 562.201 356.377 603.611 303.878 602.993C251.697 602.379 190.363 579.783 189.622 579.509C189.599 579.501 189.603 579.502 189.58 579.493C133.77 557.238 107.468 512.134 101.293 492.36L42.0836 279.544C41.4814 277.38 43.3842 275.346 45.5838 275.803L68.7605 280.616C70.9406 281.069 72.8369 279.073 72.2727 276.919L1.05645 5.03324Z" stroke="white"/>
<path d="M150.849 317.604C153.101 319.471 156.421 317.339 155.66 314.514L75.5237 16.991C74.7462 14.1043 78.2079 11.9808 80.4288 13.9822L290.161 202.987C292.262 204.881 295.577 203.08 295.132 200.287L286.516 146.158C286.092 143.494 289.145 141.696 291.284 143.34C396.444 224.15 443.747 307.53 458.905 350.206C513.875 511.52 388.495 593.104 316.231 599.903C232.232 603.611 182.203 533.152 174.792 504.103L117.431 296.991C116.648 294.161 119.977 292.006 122.237 293.881L150.849 317.604Z" stroke="white"/>
</svg>
