<svg width="476" height="604" viewBox="0 0 483 612"  fill="none" xmlns="http://www.w3.org/2000/svg">
<path d="M6.16046 2.27969L75.0904 6.91364C75.7528 6.95817 76.3817 7.22116 76.8786 7.6614L217.378 132.139C217.853 132.56 218.448 132.819 219.08 132.88L288.332 139.562C288.84 139.611 289.307 139.774 289.726 140.065C356.764 186.49 487.754 310.554 480.303 439.199C472.83 568.242 359.911 610.859 317.132 609.844C275.116 608.847 196.076 585.776 193.273 584.955C193.194 584.932 193.16 584.918 193.093 584.891L193.066 584.88C136.856 562.442 110.361 517.033 104.138 497.119L44.4245 282.639C43.822 280.475 45.7246 278.44 47.9243 278.897L71.3734 283.764C73.5536 284.216 75.4496 282.219 74.885 280.066L3.05726 6.03359C2.53752 4.05072 4.11523 2.1422 6.16046 2.27969Z" fill="black" stroke="#FF5F1F" stroke-width="4"/>
<path d="M159.601 316.74L78.7546 16.7893C77.9766 13.903 81.4374 11.7789 83.6588 13.7793L295.257 204.334C297.358 206.227 300.672 204.426 300.227 201.633L291.399 146.214C290.992 143.661 293.794 141.842 295.952 143.266C395.057 208.697 450.071 309.632 465.356 352.631C519.663 540.465 386.999 606.5 317.131 609.844C247.264 613.188 191.95 542.375 182.609 515.18L121.107 299.03C120.301 296.195 123.638 294.019 125.907 295.899L154.79 319.831C157.043 321.697 160.362 319.565 159.601 316.74Z" fill="#FF5F1F"/>
<path d="M45 279L126 298" stroke="#FF5F1F" stroke-width="4"/>
</svg>
